<svg width="303" height="303" xmlns="http://www.w3.org/2000/svg" xmlns:xlink="http://www.w3.org/1999/xlink" xml:space="preserve" overflow="hidden"><defs><clipPath id="clip0"><rect x="-16" y="161" width="303" height="303"/></clipPath></defs><g clip-path="url(#clip0)" transform="translate(16 -161)"><path d="M245.969 315.656C245.961 309.389 242.244 303.72 236.5 301.213L236.5 284.094 217.562 284.094 217.562 227.281C217.552 218.57 210.493 211.51 201.781 211.5L148.125 211.5C139.413 211.51 132.354 218.57 132.344 227.281L132.344 394.562C132.344 399.792 128.105 404.031 122.875 404.031L69.2188 404.031C63.9892 404.031 59.75 399.792 59.75 394.562L59.75 340.906 78.6875 340.906 78.6875 323.787C84.4316 321.28 88.148 315.611 88.1562 309.344L88.1562 233.594 78.6875 233.594 78.6875 208.344 34.5 208.344 34.5 233.594 25.0312 233.594 25.0312 309.344C25.0395 315.611 28.7559 321.28 34.5 323.787L34.5 340.906 53.4375 340.906 53.4375 394.562C53.4479 403.274 60.5072 410.333 69.2188 410.344L122.875 410.344C131.587 410.333 138.646 403.274 138.656 394.562L138.656 227.281C138.656 222.052 142.895 217.812 148.125 217.812L201.781 217.812C207.011 217.812 211.25 222.052 211.25 227.281L211.25 284.094 192.312 284.094 192.312 301.213C186.568 303.72 182.852 309.389 182.844 315.656L182.844 391.406 192.312 391.406 192.312 416.656 236.5 416.656 236.5 391.406 245.969 391.406ZM40.8125 214.656 72.375 214.656 72.375 233.594 40.8125 233.594ZM40.8125 325.125 40.8125 318.812C35.5829 318.812 31.3438 314.573 31.3438 309.344L31.3438 239.906 81.8438 239.906 81.8438 309.344C81.8438 314.573 77.6046 318.812 72.375 318.812L72.375 334.594 40.8125 334.594ZM230.188 410.344 198.625 410.344 198.625 391.406 230.188 391.406ZM239.656 385.094 189.156 385.094 189.156 315.656C189.156 310.427 193.395 306.188 198.625 306.188L198.625 290.406 230.188 290.406 230.188 306.188C235.417 306.188 239.656 310.427 239.656 315.656Z" fill="#404040"/></g></svg>